<svg xmlns="http://www.w3.org/2000/svg" width="64" height="64" viewBox="0 0 64 64" fill="none"><rect x="51" y="5" width="9" height="9" rx="1.5" fill="#0A0D0B"></rect><rect x="51" y="16" width="9" height="9" rx="1.5" fill="#0A0D0B"></rect><rect x="40" y="27" width="9" height="9" rx="1.5" fill="#0A0D0B"></rect><rect x="51" y="27" width="9" height="9" rx="1.5" fill="#0A0D0B"></rect><rect x="29" y="38" width="9" height="9" rx="1.5" fill="#0A0D0B"></rect><rect x="40" y="38" width="9" height="9" rx="1.5" fill="#0A0D0B"></rect><rect x="51" y="38" width="9" height="9" rx="1.5" fill="#0A0D0B"></rect><rect x="29" y="49" width="9" height="9" rx="1.5" fill="#0A0D0B"></rect><rect x="40" y="49" width="9" height="9" rx="1.5" fill="#0A0D0B"></rect><rect x="51" y="49" width="9" height="9" rx="1.5" fill="#0A0D0B"></rect><rect x="7" y="60" width="9" height="9" rx="1.5" fill="#0A0D0B"></rect><rect x="18" y="60" width="9" height="9" rx="1.5" fill="#0A0D0B"></rect><rect x="29" y="60" width="9" height="9" rx="1.5" fill="#0A0D0B"></rect><rect x="40" y="60" width="9" height="9" rx="1.5" fill="#0A0D0B"></rect><rect x="51" y="60" width="9" height="9" rx="1.5" fill="#0A0D0B"></rect></svg>